# xmcd CD database file
#
# Track frame offsets:
#	150
#	19946
#	45804
#	68612
#	90945
#
# Disc length: 1535 seconds
#
# Revision: 2
# Processed by: cddbd v1.5.2PL0 Copyright (c) Steve Scherf et al.
# Submitted via: CDex 1.70beta3
#
DISCID=2a05fd05
DTITLE=チャットモンチー - 横顔 <Acoustic Version>
DYEAR=2010
DGENRE=Rock
TTITLE0=ハイビスカスは冬に咲く
TTITLE1=ツマサキ
TTITLE2=バスロマンス
TTITLE3=恋愛スピリッツ
TTITLE4=サラバ青春
EXTD=YEAR: 2010
EXTT0=
EXTT1=
EXTT2=
EXTT3=
EXTT4=
PLAYORDER=
